<?xml version="1.0" encoding="UTF-8"?>
<!-- Generator: visioncortex VTracer 0.6.4 -->
<svg version="1.1" xmlns="http://www.w3.org/2000/svg" width="512" height="512">
<path d="M0 0 C3.56 0.47 6.77 1.4 10.13 2.69 C11.08 3.12 12.03 3.55 13 4 C14.07 4.47 15.14 4.95 16.24 5.44 C21.55 8.04 26.32 11.04 30.82 14.86 C35.08 18.68 38.77 22.71 41.94 27.5 C45.7 33.94 48.92 40.5 51.12 47.63 C52.81 54.75 52.36 62.15 52.24 69.42 C52.1 73.52 51.85 77.47 51 81.5 C48.94 88.1 45.79 94.33 42.19 100.22 C39.02 104.96 35.13 109.08 31 113 C29.35 114.35 27.69 115.7 26 117 C26.82 117.47 27.64 117.95 28.49 118.43 C36.1 122.94 42.7 127.72 49 134 C49.62 134.6 50.25 135.2 50.89 135.82 C55.64 140.76 58.82 146.58 62.11 152.54 C64.61 158.04 66.48 163.73 67.66 169.66 C68.88 177.99 68.39 186.55 68.25 194.94 C68.23 196.99 68.21 199.04 68.2 201.09 C68.15 206.06 68.08 211.03 68 216 C72.62 216 77.24 216 82 216 C82.33 214.35 82.66 212.7 83 211 C84.13 208.7 85.28 206.52 86.56 204.31 C86.92 203.7 87.27 203.08 87.64 202.45 C90.94 196.88 94.71 191.85 99 187 C99.79 186.08 99.79 186.08 100.6 185.15 C105.43 179.94 111.21 175.86 117.2 172.08 C124.73 167.55 132.78 164.13 141.19 161.56 C149.86 159.39 158.82 159.46 167.7 159.53 C174.15 159.7 180.47 159.96 186.75 161.5 C194.97 163.99 202.55 167.77 210 172 C210.85 172.48 211.7 172.97 212.58 173.46 C219.4 177.71 225.45 183.22 231 189 C236.53 195.34 240.56 202.43 244.27 209.93 C247.53 216.81 249.82 223.88 251.53 231.29 C253.26 241.2 252.51 252 252 262 C251.56 266.32 250.65 270.24 249.39 274.4 C245.99 283.2 241.83 291.54 236.56 299.38 C231.98 305.54 227.11 311.28 221.32 316.35 C214.1 322.06 206.36 326.42 197.97 330.17 C191.19 333.02 184.26 334.92 177 336 C166.15 336.69 154.68 337.04 143.97 334.97 C135.95 333.1 128.34 330.02 121.02 326.27 C113.07 321.94 106.18 316.22 99.62 310 C93.67 303.74 89.2 296.61 85.06 289.06 C83.98 287.07 82.95 285.06 82 283 C82 282.01 82 281.02 82 280 C77.38 280 72.76 280 68 280 C68.08 281.13 68.17 282.27 68.25 283.44 C68.25 285.64 68.25 285.64 68 288 C66.58 292.42 64.4 296.32 62.06 300.31 C60 303 60 303 57.25 305.38 C56.14 306.18 56.14 306.18 55 307 C55.7 314.69 57.13 322.15 58.67 329.71 C58.94 331.08 59.22 332.44 59.49 333.81 C60.08 336.73 60.67 339.65 61.26 342.57 C62.2 347.2 63.13 351.83 64.06 356.46 C66.37 367.95 68.69 379.45 71.01 390.94 C72.81 399.88 74.62 408.82 76.41 417.76 C77.34 422.35 78.26 426.95 79.2 431.54 C79.78 434.4 80.35 437.27 80.93 440.14 C81.32 442.08 81.71 444.03 82.11 445.97 C83.44 452.61 84.7 459.22 85 466 C84.55 470.21 83.47 474.03 82 478 C80.75 480.54 79.4 482.75 77.73 485.03 C75.4 487.68 72.97 489.81 70.04 491.78 C67.6 493.24 65.23 494.63 62.53 495.53 C57.66 496.44 52.78 496.52 47.85 496.35 C44 496 44 496 41.25 495.31 C39 494.37 37.05 493.31 35 492 C34.31 491.59 33.61 491.18 32.89 490.75 C30.72 489.31 28.9 487.79 27 486 C25.2 483.91 23.87 481.8 22.49 479.41 C19.1 471.66 17.95 463.14 16.39 454.87 C15.98 452.76 15.56 450.65 15.14 448.54 C14.04 442.97 12.97 437.39 11.9 431.81 C10.84 426.33 9.77 420.85 8.7 415.37 C7.42 408.84 6.14 402.32 4.87 395.79 C2.01 381.06 -0.92 366.34 -3.91 351.64 C-4.35 349.46 -4.8 347.27 -5.24 345.09 C-5.85 342.08 -6.46 339.08 -7.08 336.07 C-7.26 335.18 -7.44 334.28 -7.62 333.36 C-8.44 329.06 -8.44 329.06 -10 325 C-10.21 325.75 -10.43 326.5 -10.64 327.27 C-15.83 345.53 -21.02 363.78 -26.22 382.03 C-28.74 390.86 -31.25 399.69 -33.75 408.52 C-35.94 416.21 -38.13 423.91 -40.32 431.61 C-41.49 435.68 -42.65 439.75 -43.8 443.82 C-44.89 447.67 -45.98 451.5 -47.08 455.34 C-47.48 456.74 -47.88 458.15 -48.27 459.55 C-50.57 467.69 -52.91 475.61 -57.13 482.98 C-58.29 484.85 -59.48 486.4 -61 488 C-63.85 490.29 -66.77 492.29 -70 494 C-72.8 495.14 -72.8 495.14 -76 496 C-81.33 496.48 -86.67 496.54 -92 496 C-94.87 495.35 -97.25 494.53 -99.89 493.26 C-102.65 491.61 -105.12 489.9 -107.47 487.7 C-109.59 485.34 -111.3 482.83 -112.96 480.12 C-114.26 477.46 -115.16 474.85 -116 472 C-116.76 466.64 -116.58 461.37 -116 456 C-114.44 446.27 -112.18 436.66 -110 427.06 C-109.15 423.26 -108.31 419.46 -107.47 415.66 C-105.88 408.45 -104.26 401.24 -102.65 394.03 C-100.83 385.96 -99.04 377.88 -97.25 369.8 C-90.61 339.85 -83.86 309.91 -77 280 C-87.23 280 -97.46 280 -108 280 C-108 301.12 -108 322.24 -108 344 C-123.84 344 -139.68 344 -156 344 C-156 333.44 -156 322.88 -156 312 C-161.28 312 -166.56 312 -172 312 C-172 322.56 -172 333.12 -172 344 C-187.84 344 -203.68 344 -220 344 C-220.5 310.83 -220.5 310.83 -221 277 C-228.26 272.05 -235.52 267.1 -243 262 C-243.33 261.67 -243.66 261.34 -244 261 C-244 252.42 -244 243.84 -244 235 C-234.88 228.19 -225.61 222.22 -216 216 C-170.13 216 -124.26 216 -77 216 C-77 208.74 -77 201.48 -77 194 C-79.97 193.01 -79.97 193.01 -83 192 C-85.82 190.63 -88.49 189.03 -91.19 187.44 C-91.94 186.99 -92.69 186.55 -93.47 186.09 C-99.81 182.25 -105.48 177.95 -111 173 C-111.98 172.15 -112.97 171.29 -113.98 170.41 C-122.59 162.86 -130.03 154.52 -136.49 145.04 C-142.32 136.17 -147.42 126.66 -150.81 116.59 C-153.23 108.78 -155.68 100.73 -156.14 92.54 C-156.24 89.61 -156.28 86.68 -156.31 83.75 C-156.36 82.27 -156.36 82.27 -156.4 80.76 C-156.43 77.79 -156.35 74.95 -156 72 C-154.99 68.49 -153.71 65.23 -152 62 C-150.21 59.36 -148.38 57.14 -146 55 C-143.45 53.08 -140.87 51.41 -138 50 C-135.23 48.89 -135.23 48.89 -132 48 C-126.67 47.52 -121.33 47.46 -116 48 C-113.13 48.65 -110.75 49.47 -108.11 50.74 C-105.35 52.39 -102.88 54.1 -100.53 56.3 C-98.41 58.66 -96.7 61.17 -95.04 63.88 C-93.72 66.56 -92.82 69.11 -92 72 C-91.45 75.24 -91.04 78.49 -90.62 81.75 C-89.52 89.82 -89.52 89.82 -87.25 97.62 C-84.82 102.86 -81.53 107.46 -78 112 C-77.14 113.13 -77.14 113.13 -76.26 114.28 C-72.74 118.57 -68.92 121.94 -64.45 125.19 C-61.65 127.16 -58.84 129.09 -56 131 C-52.72 129.51 -50.07 127.61 -47.25 125.38 C-46.45 124.74 -45.65 124.11 -44.83 123.46 C-44.22 122.98 -43.62 122.5 -43 122 C-45.43 120.04 -47.86 118.11 -50.36 116.25 C-55.89 112.06 -60.6 107.6 -64.89 102.13 C-68.68 96.51 -71.76 90.41 -74 84 C-75.44 79.21 -76.12 74.54 -76.34 69.55 C-76.45 62.35 -76.53 55.18 -75.35 48.07 C-74.44 44.9 -73.36 42 -72 39 C-71.53 37.93 -71.05 36.86 -70.56 35.75 C-67.96 30.44 -64.96 25.67 -61.14 21.18 C-57.32 16.92 -53.29 13.23 -48.5 10.06 C-42.07 6.3 -35.52 3.09 -28.4 0.89 C-19.3 -1.27 -9.26 -0.64 0 0 Z M183 233 C180.86 234.26 178.93 235.45 177 237 C175.45 238.93 174.26 240.86 173 243 C173 246.3 173 249.6 173 253 C174.26 255.14 175.45 257.07 177 259 C178.93 260.55 180.86 261.74 183 263 C186.3 263 189.6 263 193 263 C195.14 261.74 197.07 260.55 199 259 C200.55 257.07 201.74 255.14 203 253 C203 249.7 203 246.4 203 243 C201.74 240.86 200.55 238.93 199 237 C197.07 235.45 195.14 234.26 193 233 C189.7 233 186.4 233 183 233 Z " fill="#000000" transform="translate(252,8)"/>
<path d="M0 0 C7.41 1.39 14.27 3.69 21.12 6.81 C27.42 10.08 32.72 14.17 38.06 18.81 C42.71 23.18 46.41 27.69 49.82 33.09 C53.74 39.85 56.94 46.42 59.19 53.91 C60.8 60.85 60.92 67.75 60.72 74.85 C60.41 81.3 59.36 87.36 57.44 93.53 C55.35 99.5 52.93 105.1 49.62 110.5 C44.97 117.19 39.64 123.24 33.44 128.53 C28.2 132.38 22.83 135.51 16.85 138.07 C10.21 140.54 3.51 142.79 -3.56 143.53 C-11.95 144.07 -20.23 143.72 -28.49 142.15 C-34.4 140.83 -39.69 138.51 -45.04 135.71 C-50.31 132.81 -55.09 129.59 -59.56 125.53 C-60.3 124.88 -61.05 124.22 -61.82 123.55 C-66.18 119.49 -69.61 115.24 -72.81 110.22 C-76.3 104.26 -79.46 98.13 -81.56 91.53 C-81.56 90.21 -81.56 88.89 -81.56 87.53 C-90.14 87.53 -98.72 87.53 -107.56 87.53 C-107.56 76.97 -107.56 66.41 -107.56 55.53 C-98.98 55.53 -90.4 55.53 -81.56 55.53 C-81.23 53.22 -80.9 50.91 -80.56 48.53 C-79.82 46.41 -79.82 46.41 -78.96 44.66 C-78.64 44.01 -78.31 43.36 -77.98 42.68 C-77.64 42.01 -77.29 41.35 -76.93 40.66 C-76.57 39.95 -76.21 39.25 -75.84 38.53 C-72.96 33.02 -69.75 28.14 -65.56 23.53 C-64.88 22.77 -64.21 22.02 -63.51 21.24 C-59.71 17.21 -55.81 13.83 -51.18 10.78 C-45.81 7.57 -40.48 4.59 -34.56 2.53 C-23.13 -0.45 -11.78 -1.55 0 0 Z M7.44 56.53 C5.3 57.79 3.37 58.98 1.44 60.53 C-0.11 62.46 -1.3 64.39 -2.56 66.53 C-2.56 69.83 -2.56 73.13 -2.56 76.53 C-1.3 78.67 -0.11 80.6 1.44 82.53 C3.37 84.08 5.3 85.27 7.44 86.53 C10.74 86.53 14.04 86.53 17.44 86.53 C19.58 85.27 21.52 84.08 23.44 82.53 C24.99 80.6 26.18 78.67 27.44 76.53 C27.44 73.23 27.44 69.93 27.44 66.53 C26.18 64.39 24.99 62.46 23.44 60.53 C21.52 58.98 19.58 57.79 17.44 56.53 C14.14 56.53 10.84 56.53 7.44 56.53 Z " fill="#5BD4B2" transform="translate(427.55859375,184.46875)"/>
<path d="M0 0 C21.12 0 42.24 0 64 0 C64.99 3.96 65.98 7.92 67 12 C68.89 15.92 70.3 18.74 73 22 C76.13 24.74 79.37 26.96 83 29 C85.97 30.46 85.97 30.46 89 31 C92 31.42 94.99 31.73 98 32 C100.21 40.5 102.1 49.02 103.82 57.63 C104.09 58.95 104.35 60.27 104.62 61.58 C105.33 65.13 106.05 68.67 106.76 72.21 C107.2 74.43 107.65 76.65 108.09 78.87 C109.65 86.63 111.21 94.39 112.76 102.14 C114.21 109.35 115.66 116.56 117.11 123.77 C118.37 129.99 119.61 136.2 120.86 142.42 C121.6 146.12 122.34 149.82 123.09 153.52 C123.8 157 124.49 160.47 125.18 163.95 C125.56 165.82 125.94 167.7 126.32 169.57 C127.49 175.49 128.35 180.96 128 187 C127.32 189.34 126.39 191.11 125.21 193.24 C124 195 124 195 121.38 197.44 C119 199 119 199 117 200 C113.96 200.38 111.04 200.36 108 200 C105.99 199.28 105.99 199.28 104.19 198.31 C101 196 101 196 98.94 194.01 C98.3 193.02 97.66 192.02 97 191 C95.93 187.54 95.33 184.02 94.71 180.45 C94.29 178.19 93.86 175.92 93.43 173.65 C93.09 171.81 93.09 171.81 92.74 169.92 C91.54 163.59 90.24 157.27 88.94 150.95 C88.15 147.07 87.36 143.19 86.57 139.3 C85.6 134.55 84.63 129.79 83.66 125.03 C82.7 120.33 81.74 115.63 80.79 110.92 C80.63 110.15 80.47 109.37 80.31 108.58 C78.52 99.71 76.77 90.85 75.1 81.96 C74.95 81.13 74.79 80.31 74.64 79.45 C73.9 75.52 73.17 71.58 72.45 67.64 C69.7 51.08 69.7 51.08 64.4 35.27 C62.27 30.97 59.92 27.13 56.9 23.41 C53.23 19.51 49.35 16.4 44.81 13.56 C41.31 11.59 37.91 10.03 34 9 C33.52 10.75 33.04 12.5 32.56 14.25 C32.3 15.22 32.03 16.2 31.75 17.2 C31.14 19.46 30.56 21.73 30 24 C31.98 24.66 33.96 25.32 36 26 C36.6 27.59 36.6 27.59 37 30 C36.42 32.99 36.42 32.99 35.41 36.55 C35.22 37.21 35.04 37.87 34.85 38.54 C34.23 40.74 33.6 42.94 32.97 45.14 C32.52 46.71 32.08 48.29 31.64 49.87 C30.43 54.16 29.2 58.44 27.98 62.72 C26.95 66.29 25.94 69.87 24.92 73.45 C22.52 81.89 20.11 90.32 17.7 98.76 C15.21 107.46 12.73 116.16 10.27 124.87 C8.15 132.34 6.02 139.81 3.89 147.28 C2.61 151.74 1.34 156.21 0.08 160.67 C-1.11 164.87 -2.31 169.07 -3.52 173.26 C-3.96 174.8 -4.4 176.34 -4.83 177.88 C-5.42 179.99 -6.03 182.09 -6.65 184.19 C-7.15 185.96 -7.15 185.96 -7.66 187.76 C-9 191 -9 191 -10.16 192.69 C-11.37 194.18 -12.68 195.6 -14 197 C-14.91 197.62 -15.81 198.24 -16.75 198.88 C-20 200 -20 200 -22.38 200.18 C-24.6 200.19 -26.79 200.13 -29 200 C-31.14 198.74 -33.07 197.54 -35 196 C-37.31 192.94 -37.31 192.94 -39 190 C-39.33 189.01 -39.66 188.02 -40 187 C-40.2 182.83 -40.12 179.06 -39.27 174.97 C-38.94 173.55 -38.59 172.13 -38.24 170.71 C-37.97 169.54 -37.97 169.54 -37.69 168.36 C-37.29 166.7 -36.9 165.05 -36.5 163.39 C-35.44 158.99 -34.4 154.59 -33.37 150.19 C-33.16 149.31 -32.96 148.43 -32.74 147.52 C-31.01 140.14 -29.44 132.74 -27.94 125.31 C-25.77 114.64 -23.49 104 -21.12 93.38 C-20.96 92.62 -20.79 91.86 -20.61 91.08 C-17.96 79.18 -15.24 67.3 -12.51 55.42 C-9.39 41.86 -6.43 28.25 -3.53 14.64 C-3.36 13.88 -3.2 13.12 -3.03 12.34 C-2.73 10.92 -2.43 9.51 -2.13 8.09 C-1.54 5.33 -0.89 2.68 0 0 Z " fill="#818D99" transform="translate(192,288)"/>
<path d="M0 0 C5.06 0.54 9.82 1.94 14.58 3.68 C19.93 5.95 24.59 8.78 29.25 12.24 C30.3 12.98 31.35 13.72 32.44 14.49 C36.68 18.64 40.06 23.23 43.25 28.24 C46.14 33.6 48.37 38.96 49.82 44.89 C50.62 49.26 50.53 53.63 50.52 58.06 C50.53 59.11 50.53 60.17 50.54 61.25 C50.55 64.72 50.55 68.19 50.55 71.65 C50.55 74.07 50.56 76.49 50.56 78.91 C50.57 83.96 50.57 89.02 50.56 94.08 C50.56 100.56 50.58 107.04 50.6 113.52 C50.61 118.51 50.61 123.5 50.61 128.49 C50.61 130.88 50.62 133.27 50.63 135.66 C50.64 139 50.63 142.34 50.62 145.68 C50.63 146.66 50.64 147.65 50.64 148.66 C50.62 151.22 50.56 153.7 50.25 156.24 C48.82 159.8 48.82 159.8 47.25 162.24 C45.39 164.23 43.46 165.6 41.25 167.24 C40.59 167.57 39.93 167.9 39.25 168.24 C37.54 168.31 35.83 168.32 34.12 168.3 C33.21 168.29 32.3 168.28 31.37 168.27 C30.67 168.26 29.97 168.25 29.25 168.24 C27.2 166.98 25.21 165.63 23.25 164.24 C20.94 161.68 20.94 161.68 19.25 159.24 C18.25 156.24 18.25 156.24 18.12 154.36 C18.12 153.29 18.12 153.29 18.12 152.2 C18.12 151.38 18.12 150.56 18.12 149.72 C18.12 148.82 18.12 147.92 18.12 147 C18.12 146.05 18.12 145.11 18.12 144.13 C18.11 142.07 18.11 140.01 18.11 137.95 C18.11 133.56 18.09 129.18 18.07 124.79 C18.03 116.62 18 108.45 18 100.28 C18 94.59 17.98 88.91 17.94 83.23 C17.93 81.07 17.92 78.91 17.93 76.75 C18.17 65.9 18.17 65.9 16.78 55.18 C15.36 50.64 13.18 46.74 10.69 42.72 C9.06 40.26 7.37 38.3 5.25 36.24 C1.11 32.96 -3.3 30.07 -7.75 27.24 C-8.74 27.57 -9.73 27.9 -10.75 28.24 C-12.73 31.21 -14.71 34.18 -16.75 37.24 C-16.42 38.23 -16.09 39.22 -15.75 40.24 C-14.77 40.87 -14.77 40.87 -13.77 41.52 C-9.58 44.34 -5.61 47.06 -2.25 50.86 C-0.91 52.46 -0.91 52.46 0.25 54.24 C0.91 55.89 1.57 57.54 2.25 59.24 C2.25 68.81 2.25 78.38 2.25 88.24 C-18.87 88.24 -39.99 88.24 -61.75 88.24 C-61.81 81.89 -61.87 75.53 -61.94 68.99 C-61.97 67.01 -61.99 65.03 -62.02 62.99 C-62.08 55.65 -62.14 48.54 -60.44 41.36 C-58.8 35.89 -56.53 31.24 -53.7 26.28 C-50.81 21.76 -47.69 17.88 -43.75 14.24 C-38.9 10.24 -33.8 7.12 -28.13 4.43 C-18.98 0.3 -9.9 -0.6 0 0 Z " fill="#FAD56F" transform="translate(253.7509765625,135.76171875)"/>
<path d="M0 0 C5.55 1.11 10.61 2.87 15.72 5.29 C20.14 7.73 23.97 10.64 27.69 14.06 C31.05 17.59 33.54 21.26 35.94 25.5 C37.72 29.08 39.4 32.57 40.44 36.44 C41.44 42.59 41.53 48.8 41 55 C39.89 60.55 38.13 65.61 35.71 70.72 C33.28 75.12 30.38 78.97 27 82.69 C24.33 85.24 21.77 87.14 18.59 89.05 C13.92 91.54 9.06 93.87 4 95.44 C-1.91 96.58 -8.02 96.42 -14 96 C-18.89 95.23 -23.23 93.75 -27.77 91.82 C-31.73 89.86 -35.21 87.63 -38.67 84.88 C-41.86 81.94 -44.74 78.98 -47.08 75.31 C-50.06 70.15 -52.67 64.69 -54.44 59 C-55.58 53.09 -55.42 46.98 -55 41 C-54.23 36.11 -52.75 31.77 -50.82 27.23 C-48.85 23.25 -46.63 19.78 -43.84 16.33 C-40.43 12.67 -36.97 9.64 -32.78 6.89 C-28.22 4.31 -23.64 1.93 -18.56 0.56 C-12.41 -0.44 -6.2 -0.53 0 0 Z " fill="#EECEB3" transform="translate(247,24)"/>
<path d="M0 0 C70.62 0 141.24 0 214 0 C214 10.56 214 21.12 214 32 C143.38 32 72.76 32 0 32 C-5.94 28.04 -11.88 24.08 -18 20 C-18 17.36 -18 14.72 -18 12 C-12.06 8.04 -6.12 4.08 0 0 Z " fill="#5BD5B2" transform="translate(42,240)"/>
<path d="M0 0 C1.71 -0.07 3.42 -0.08 5.12 -0.06 C6.04 -0.05 6.95 -0.04 7.88 -0.04 C8.93 -0.02 8.93 -0.02 10 0 C12.05 1.26 14.04 2.61 16 4 C18 6.27 19.65 8.3 21 11 C21.17 12.92 21.34 14.84 21.49 16.76 C22.02 23.11 22.79 29.22 24.83 35.27 C27.51 42.47 30.91 49.25 35.32 55.55 C40.15 62 45.86 67.78 52 73 C55.82 75.94 59.84 78.55 64 81 C62.93 83.74 61.8 86.44 60.6 89.13 C57.24 96.64 54.69 103.9 53 112 C46.06 108.95 40.06 105.15 34.08 100.51 C24.69 92.85 16.28 84.75 9 75 C3.39 66.82 -1.38 58.24 -5 49 C-7.83 40.78 -10.19 32.67 -11 24 C-11.06 21.67 -11.09 19.33 -11.06 17 C-11.05 15.87 -11.04 14.73 -11.04 13.56 C-11.02 12.72 -11.01 11.87 -11 11 C-9.74 8.95 -8.39 6.96 -7 5 C-4.73 3 -2.7 1.35 0 0 Z " fill="#F9D46E" transform="translate(123,72)"/>
<path d="M0 0 C3.61 0.06 6.66 0.38 10.14 1.35 C14 2.85 17.53 4.56 21 6.82 C23.49 8.79 25.44 10.85 27.34 13.39 C29.25 16.3 30.72 19.05 31.98 22.3 C32.9 25.51 33.24 28.23 33.31 31.56 C33.25 35.18 32.94 38.22 31.96 41.7 C30.48 45.51 28.72 49.02 26.63 52.53 C25.31 54.31 25.31 54.31 23.82 55.91 C19.63 59.2 14.74 61.34 9.88 63.44 C6.88 64.44 6.88 64.44 4.05 64.68 C0.63 64.75 -2.71 64.72 -6.12 64.44 C-8.67 63.76 -10.75 62.91 -13.07 61.69 C-14.09 61.07 -14.09 61.07 -15.12 60.44 C-16.17 59.82 -16.17 59.82 -17.24 59.19 C-19.42 57.74 -21.26 56.28 -23.12 54.44 C-26.11 50.37 -28.43 46.22 -30.27 41.52 C-31.17 38.27 -31.46 35.49 -31.5 32.12 C-31.44 28.88 -31.28 26.01 -30.44 22.88 C-29.49 20.59 -28.41 18.55 -27.12 16.44 C-26.7 15.74 -26.28 15.04 -25.84 14.32 C-24.39 12.18 -22.91 10.31 -21.12 8.44 C-18.28 6.13 -15.37 4.14 -12.12 2.44 C-8 0.82 -4.42 0.09 0 0 Z M-4.12 17.44 C-6.26 18.7 -8.2 19.89 -10.12 21.44 C-11.68 23.36 -12.86 25.3 -14.12 27.44 C-14.12 30.74 -14.12 34.04 -14.12 37.44 C-12.86 39.58 -11.68 41.51 -10.12 43.44 C-8.2 44.99 -6.26 46.17 -4.12 47.44 C-0.82 47.44 2.48 47.44 5.88 47.44 C8.01 46.17 9.95 44.99 11.88 43.44 C13.43 41.51 14.61 39.58 15.88 37.44 C15.88 34.14 15.88 30.84 15.88 27.44 C14.61 25.3 13.43 23.36 11.88 21.44 C9.95 19.89 8.01 18.7 5.88 17.44 C2.57 17.44 -0.73 17.44 -4.12 17.44 Z " fill="#010202" transform="translate(439.125,223.5625)"/>
<path d="M0 0 C26.4 0 52.8 0 80 0 C80 15.84 80 31.68 80 48 C74.72 48 69.44 48 64 48 C64 37.44 64 26.88 64 16 C48.16 16 32.32 16 16 16 C16 26.56 16 37.12 16 48 C10.72 48 5.44 48 0 48 C0 32.16 0 16.32 0 0 Z " fill="#5CD6B3" transform="translate(48,288)"/>
</svg>
