<?xml version="1.0" encoding="UTF-8"?>
<!-- Generator: visioncortex VTracer 0.6.4 -->
<svg version="1.1" xmlns="http://www.w3.org/2000/svg" width="512" height="512">
<path d="M0 0 C1.07 0.47 2.14 0.95 3.24 1.44 C19.75 9.52 30.61 22.83 37 40 C42.07 56.46 40.17 75.36 32.44 90.56 C27.59 99.55 21.09 106.75 13 113 C13.82 113.47 14.64 113.95 15.49 114.43 C23.1 118.94 29.7 123.72 36 130 C36.62 130.6 37.25 131.2 37.89 131.82 C53.86 148.43 55.62 169.18 55.25 190.94 C55.23 192.99 55.21 195.04 55.2 197.09 C55.15 202.06 55.08 207.03 55 212 C59.62 212 64.24 212 69 212 C69.33 210.35 69.66 208.7 70 207 C71.13 204.7 72.28 202.52 73.56 200.31 C73.92 199.7 74.27 199.08 74.64 198.45 C77.94 192.88 81.71 187.85 86 183 C86.79 182.08 86.79 182.08 87.6 181.15 C101.68 165.96 123.19 156.53 143.68 155.62 C163.88 155.11 179.4 158.01 197 168 C197.85 168.48 198.7 168.97 199.58 169.46 C219.61 181.91 232.36 202.42 238 225 C243.51 248.91 237.73 272.45 225.24 292.88 C212.05 312.51 192.93 325.47 170 331 C146.65 335.37 122.16 331.74 102.12 318.79 C87.28 308.5 76.57 295.4 69 279 C69 278.01 69 277.02 69 276 C64.38 276 59.76 276 55 276 C55.08 277.13 55.17 278.27 55.25 279.44 C55.25 286.75 51.36 293.32 47 299 C46.07 299.6 45.14 300.2 44.19 300.81 C43.47 301.53 42.74 302.26 42 303 C42.4 310.68 44.14 318.19 45.67 325.71 C45.94 327.08 46.22 328.44 46.49 329.81 C47.08 332.73 47.67 335.65 48.26 338.57 C49.2 343.2 50.13 347.83 51.06 352.46 C53.37 363.95 55.69 375.45 58.01 386.94 C59.81 395.88 61.62 404.82 63.41 413.76 C64.34 418.35 65.26 422.95 66.2 427.54 C66.78 430.4 67.35 433.27 67.93 436.14 C68.32 438.08 68.71 440.03 69.11 441.97 C71.75 455.2 73.76 466.76 66.31 478.88 C61.61 485.28 54.95 490.51 47 492 C38.08 492.75 29.79 492.99 22 488 C21.31 487.59 20.61 487.18 19.89 486.75 C11 480.88 7.78 472.52 5.64 462.46 C4.86 458.61 4.12 454.74 3.39 450.87 C2.98 448.76 2.56 446.65 2.14 444.54 C1.04 438.97 -0.03 433.39 -1.1 427.81 C-2.16 422.33 -3.23 416.85 -4.3 411.37 C-5.58 404.84 -6.86 398.32 -8.13 391.79 C-10.99 377.06 -13.92 362.34 -16.91 347.64 C-17.35 345.46 -17.8 343.27 -18.24 341.09 C-18.85 338.08 -19.46 335.08 -20.08 332.07 C-20.26 331.18 -20.44 330.28 -20.62 329.36 C-21.44 325.06 -21.44 325.06 -23 321 C-23.21 321.75 -23.43 322.5 -23.64 323.27 C-28.83 341.53 -34.02 359.78 -39.22 378.03 C-41.74 386.86 -44.25 395.69 -46.75 404.52 C-48.94 412.21 -51.13 419.91 -53.32 427.61 C-54.49 431.68 -55.65 435.75 -56.8 439.82 C-57.89 443.67 -58.98 447.5 -60.08 451.34 C-60.48 452.74 -60.88 454.15 -61.27 455.55 C-65.08 469.03 -68.49 480.82 -80.62 488.74 C-88.89 493.12 -98.97 493.37 -108.02 491.31 C-116.79 488.08 -122.89 482.37 -127 474 C-133.17 457.67 -126.69 439.35 -123 423.06 C-122.15 419.26 -121.31 415.46 -120.47 411.66 C-118.88 404.45 -117.26 397.24 -115.65 390.03 C-113.83 381.96 -112.04 373.88 -110.25 365.8 C-103.61 335.85 -96.86 305.91 -90 276 C-100.23 276 -110.46 276 -121 276 C-121 297.12 -121 318.24 -121 340 C-136.84 340 -152.68 340 -169 340 C-169 329.44 -169 318.88 -169 308 C-174.28 308 -179.56 308 -185 308 C-185 318.56 -185 329.12 -185 340 C-200.84 340 -216.68 340 -233 340 C-232.82 335.34 -232.63 330.67 -232.45 325.87 C-232.38 322.89 -232.32 319.9 -232.28 316.92 C-232.22 312.19 -232.14 307.48 -231.91 302.76 C-230.51 285.57 -230.51 285.57 -236.24 270.06 C-241.51 265.23 -247.39 261.85 -253.9 258.94 C-256 258 -256 258 -257 257 C-257.79 250.46 -257.86 243.82 -257.7 237.24 C-257.67 236.17 -257.65 235.09 -257.62 233.98 C-256.82 230.12 -255.51 228.65 -252.56 226.06 C-251.57 225.63 -250.58 225.19 -249.55 224.74 C-246.72 223.35 -245.07 222.33 -242.77 220.33 C-229.77 209.51 -215.25 210.55 -199.21 210.88 C-195.36 210.95 -191.51 210.96 -187.66 210.97 C-180.39 211.01 -173.13 211.1 -165.87 211.21 C-157.59 211.33 -149.31 211.39 -141.03 211.45 C-124.02 211.56 -107.01 211.76 -90 212 C-90 204.74 -90 197.48 -90 190 C-92.97 189.01 -92.97 189.01 -96 188 C-98.82 186.63 -101.49 185.03 -104.19 183.44 C-104.94 182.99 -105.69 182.55 -106.47 182.09 C-112.81 178.25 -118.48 173.95 -124 169 C-124.98 168.15 -125.97 167.29 -126.98 166.41 C-148.81 147.25 -165.41 120.22 -169 91 C-169.21 87.25 -169.28 83.51 -169.31 79.75 C-169.36 78.27 -169.36 78.27 -169.4 76.76 C-169.48 67.45 -167.16 59.44 -160.7 52.53 C-152.48 45.14 -143.77 43.42 -132.99 43.69 C-124.6 44.16 -117.6 47.77 -112 54 C-106.45 61.39 -104.78 68.74 -103.62 77.75 C-101.91 89.83 -98.54 98.31 -91 108 C-90.14 109.13 -90.14 109.13 -89.26 110.28 C-83.55 117.24 -76.41 122.02 -69 127 C-65.72 125.51 -63.07 123.61 -60.25 121.38 C-59.45 120.74 -58.65 120.11 -57.83 119.46 C-57.22 118.98 -56.62 118.5 -56 118 C-58.43 116.04 -60.86 114.11 -63.36 112.25 C-76.86 102.04 -86.48 87.94 -89 71 C-90 58.78 -90.12 46.32 -85 35 C-84.53 33.93 -84.05 32.86 -83.56 31.75 C-75.47 15.24 -62.17 4.4 -45 -2 C-31.09 -6.3 -13.32 -6.1 0 0 Z M161.62 235.62 C159.42 240.2 159.2 244.01 160 249 C162.33 253.84 165.16 256.67 170 259 C174.99 259.8 178.8 259.58 183.38 257.38 C186.96 254.13 189.6 251.54 190.38 246.6 C190.64 240.92 189.94 237.35 186 233 C181.65 229.06 178.08 228.36 172.4 228.62 C167.46 229.4 164.87 232.04 161.62 235.62 Z " fill="#000000" transform="translate(265,12)"/>
<path d="M0 0 C14.16 11.94 24.78 27.59 27.59 46.18 C29.29 67.5 24.59 87.58 10.59 104.18 C-1.4 117.99 -18.06 127.25 -36.41 129.18 C-56.38 130.47 -74.91 126.11 -90.4 113.01 C-91.06 112.41 -91.73 111.8 -92.41 111.18 C-93.16 110.53 -93.9 109.88 -94.67 109.2 C-103.93 100.58 -110.58 89.23 -114.41 77.18 C-114.41 75.86 -114.41 74.54 -114.41 73.18 C-122.99 73.18 -131.57 73.18 -140.41 73.18 C-140.41 62.62 -140.41 52.06 -140.41 41.18 C-131.83 41.18 -123.25 41.18 -114.41 41.18 C-114.08 38.87 -113.75 36.56 -113.41 34.18 C-112.67 32.06 -112.67 32.06 -111.81 30.32 C-111.49 29.66 -111.17 29.01 -110.83 28.34 C-110.49 27.67 -110.14 27 -109.79 26.31 C-109.43 25.61 -109.07 24.9 -108.7 24.18 C-105.81 18.67 -102.61 13.79 -98.41 9.18 C-97.73 8.43 -97.06 7.67 -96.36 6.89 C-71.32 -19.66 -28.76 -22.34 0 0 Z M-33.79 48.81 C-35.99 53.39 -36.21 57.19 -35.41 62.18 C-33.08 67.02 -30.25 69.85 -25.41 72.18 C-20.42 72.98 -16.61 72.76 -12.04 70.56 C-8.45 67.32 -5.81 64.72 -5.03 59.79 C-4.77 54.1 -5.47 50.53 -9.41 46.18 C-13.76 42.25 -17.33 41.54 -23.01 41.8 C-27.95 42.59 -30.54 45.22 -33.79 48.81 Z " fill="#5BD4B2" transform="translate(460.41015625,198.81640625)"/>
<path d="M0 0 C21.12 0 42.24 0 64 0 C64.99 3.96 65.98 7.92 67 12 C71.4 21.12 76.82 26.22 86.06 30.38 C90.02 31.22 93.97 31.64 98 32 C100.21 40.5 102.1 49.02 103.82 57.63 C104.09 58.95 104.35 60.27 104.62 61.58 C105.33 65.13 106.05 68.67 106.76 72.21 C107.2 74.43 107.65 76.65 108.09 78.87 C109.65 86.63 111.21 94.39 112.76 102.14 C114.21 109.35 115.66 116.56 117.11 123.77 C118.37 129.99 119.61 136.2 120.86 142.42 C121.6 146.12 122.34 149.82 123.09 153.52 C123.8 157 124.49 160.47 125.18 163.95 C125.56 165.82 125.94 167.7 126.32 169.57 C129.47 185.53 129.47 185.53 125.21 193.24 C123.05 196.37 120.37 198.32 117 200 C110.46 200.81 106.32 199.86 101 196 C96.34 191.5 95.78 186.58 94.71 180.45 C94.29 178.19 93.86 175.92 93.43 173.65 C93.09 171.81 93.09 171.81 92.74 169.92 C91.54 163.59 90.24 157.27 88.94 150.95 C88.15 147.07 87.36 143.19 86.57 139.3 C85.6 134.55 84.63 129.79 83.66 125.03 C82.7 120.33 81.74 115.63 80.79 110.92 C80.63 110.15 80.47 109.37 80.31 108.58 C78.52 99.71 76.77 90.85 75.1 81.96 C74.95 81.13 74.79 80.31 74.64 79.45 C73.9 75.52 73.17 71.58 72.45 67.64 C67.05 37.63 67.05 37.63 47.41 15.19 C43.11 12.5 38.94 10.3 34 9 C33.52 10.75 33.04 12.5 32.56 14.25 C32.3 15.22 32.03 16.2 31.75 17.2 C31.14 19.46 30.56 21.73 30 24 C30.97 24.25 31.94 24.5 32.94 24.75 C36 26 36 26 36.79 27.67 C37.08 30.91 36.3 33.42 35.41 36.55 C35.22 37.21 35.04 37.87 34.85 38.54 C34.23 40.74 33.6 42.94 32.97 45.14 C32.52 46.71 32.08 48.29 31.64 49.87 C30.43 54.16 29.2 58.44 27.98 62.72 C26.95 66.29 25.94 69.87 24.92 73.45 C22.52 81.89 20.11 90.32 17.7 98.76 C15.21 107.46 12.73 116.16 10.27 124.87 C8.15 132.34 6.02 139.81 3.89 147.28 C2.61 151.74 1.34 156.21 0.08 160.67 C-1.11 164.87 -2.31 169.07 -3.52 173.26 C-3.96 174.8 -4.4 176.34 -4.83 177.88 C-5.42 179.99 -6.03 182.09 -6.65 184.19 C-7.15 185.96 -7.15 185.96 -7.66 187.76 C-9.66 192.6 -12.38 195.9 -16.75 198.88 C-20.98 200.34 -24.58 200.71 -29 200 C-33.87 197.61 -36.32 194.67 -39 190 C-41.17 183.49 -39.84 177.18 -38.24 170.71 C-37.97 169.54 -37.97 169.54 -37.69 168.36 C-37.29 166.7 -36.9 165.05 -36.5 163.39 C-35.44 158.99 -34.4 154.59 -33.37 150.19 C-33.16 149.31 -32.96 148.43 -32.74 147.52 C-31.01 140.14 -29.44 132.74 -27.94 125.31 C-25.77 114.64 -23.49 104 -21.12 93.38 C-20.96 92.62 -20.79 91.86 -20.61 91.08 C-17.96 79.18 -15.24 67.3 -12.51 55.42 C-9.39 41.86 -6.43 28.25 -3.53 14.64 C-3.36 13.88 -3.2 13.12 -3.03 12.34 C-2.73 10.92 -2.43 9.51 -2.13 8.09 C-1.54 5.33 -0.89 2.68 0 0 Z " fill="#818D99" transform="translate(192,288)"/>
<path d="M0 0 C1.64 1.14 3.27 2.31 4.88 3.5 C5.93 4.24 6.98 4.99 8.06 5.75 C18.23 15.69 25.74 29.14 26.14 43.56 C26.15 45.48 26.15 47.4 26.15 49.32 C26.15 50.37 26.16 51.43 26.17 52.51 C26.18 55.98 26.18 59.45 26.18 62.91 C26.18 65.33 26.18 67.75 26.19 70.17 C26.2 75.23 26.2 80.29 26.19 85.34 C26.18 91.82 26.2 98.31 26.23 104.79 C26.24 109.78 26.24 114.76 26.24 119.75 C26.24 122.14 26.24 124.53 26.25 126.92 C26.27 130.26 26.26 133.6 26.25 136.94 C26.25 137.93 26.26 138.91 26.27 139.93 C26.22 145.94 25.63 150.55 21.34 155.14 C15.65 159.5 12 160.29 4.88 159.5 C0.45 157.29 -2.32 154.55 -5.12 150.5 C-6.03 147.79 -6.25 146.24 -6.25 143.46 C-6.25 142.64 -6.25 141.82 -6.26 140.98 C-6.26 140.08 -6.25 139.19 -6.25 138.26 C-6.25 137.32 -6.25 136.37 -6.26 135.39 C-6.26 133.33 -6.26 131.27 -6.26 129.22 C-6.27 124.83 -6.29 120.44 -6.31 116.05 C-6.35 107.88 -6.38 99.71 -6.38 91.54 C-6.37 85.85 -6.4 80.17 -6.44 74.49 C-6.45 72.33 -6.45 70.17 -6.44 68.01 C-6.39 53.27 -7.07 41.52 -16.89 29.68 C-19.69 26.94 -22.68 24.64 -25.88 22.38 C-26.44 21.97 -27.01 21.57 -27.59 21.15 C-29.4 19.91 -29.4 19.91 -32.12 18.5 C-35.72 19.7 -36.31 20.78 -38.38 23.88 C-38.92 24.67 -39.46 25.46 -40.02 26.27 C-41.49 28.58 -41.49 28.58 -40.12 31.5 C-38.01 33.16 -38.01 33.16 -35.44 34.75 C-28.89 39.19 -25.07 43.13 -22.12 50.5 C-22.12 60.07 -22.12 69.64 -22.12 79.5 C-43.25 79.5 -64.37 79.5 -86.12 79.5 C-86.19 73.15 -86.25 66.8 -86.31 60.25 C-86.34 58.27 -86.37 56.29 -86.4 54.25 C-86.54 36.18 -83.17 21.02 -70.28 7.49 C-50.53 -10.76 -22.94 -14.17 0 0 Z " fill="#FAD56F" transform="translate(278.125,144.5)"/>
<path d="M0 0 C9.41 8.66 14.9 19.61 15.88 32.28 C16.42 47.13 11.59 59.79 1.63 70.76 C-8.77 80.68 -21.78 84.57 -35.85 84.32 C-48.95 83.4 -60.09 77.45 -69.07 67.98 C-78.29 56.29 -81.4 43.75 -80.37 29.07 C-78.33 16.04 -71.57 5.31 -61.37 -2.93 C-41.59 -15.89 -18.58 -15.12 0 0 Z " fill="#EECEB3" transform="translate(272.37109375,35.9296875)"/>
<path d="M0 0 C2.11 0 4.22 0 6.33 -0.01 C12.01 -0.01 17.68 0.06 23.35 0.15 C29.3 0.22 35.25 0.23 41.2 0.24 C52.44 0.28 63.68 0.38 74.92 0.5 C87.73 0.63 100.54 0.7 113.34 0.76 C139.67 0.88 165.99 1.1 192.31 1.36 C192.31 11.92 192.31 22.48 192.31 33.36 C164.72 33.64 137.13 33.85 109.54 33.98 C96.73 34.05 83.91 34.13 71.1 34.27 C59.93 34.39 48.75 34.46 37.58 34.49 C31.67 34.51 25.76 34.54 19.85 34.63 C14.27 34.71 8.7 34.74 3.12 34.72 C1.08 34.72 -0.95 34.75 -2.98 34.79 C-14.17 35.04 -22.49 33.96 -32.04 27.78 C-32.82 27.28 -33.59 26.78 -34.39 26.26 C-37.14 24.26 -39.21 22.63 -40.42 19.4 C-40.77 16.16 -40.35 14.2 -38.32 11.62 C-36.33 9.84 -34.29 8.39 -32.04 6.95 C-31.23 6.42 -30.43 5.9 -29.59 5.36 C-20 -0.32 -10.87 -0.25 0 0 Z " fill="#5BD5B2" transform="translate(63.68798828125,238.6376953125)"/>
<path d="M0 0 C4.99 2.49 8.5 5.99 11 11 C11.17 12.92 11.34 14.84 11.49 16.76 C13.4 39.84 24.49 58.12 42 73 C45.82 75.94 49.84 78.55 54 81 C52.93 83.74 51.8 86.44 50.6 89.13 C47.24 96.64 44.69 103.9 43 112 C16.57 100.36 -4.62 75.53 -15 49 C-25.11 19.68 -25.11 19.68 -19.31 7.44 C-13.17 0.96 -8.84 -0.98 0 0 Z " fill="#F9D46E" transform="translate(133,72)"/>
<path d="M0 0 C7.34 4.78 11.63 11.66 14 20 C15.32 30.73 12.88 40.16 6.44 48.88 C1.39 54.26 -7.47 58.62 -14.82 59.24 C-22.21 59.4 -27.64 58.87 -34 55 C-35.05 54.38 -35.05 54.38 -36.12 53.75 C-43.5 48.85 -47.65 41.43 -50 33 C-50.88 24.84 -50.3 18.05 -46 11 C-45.58 10.3 -45.15 9.6 -44.71 8.88 C-34.18 -6.68 -15.81 -8.8 0 0 Z M-31.38 18.62 C-33.58 23.2 -33.8 27.01 -33 32 C-30.67 36.84 -27.84 39.67 -23 42 C-18.01 42.8 -14.2 42.58 -9.62 40.38 C-6.04 37.13 -3.4 34.54 -2.62 29.6 C-2.36 23.92 -3.06 20.35 -7 16 C-11.35 12.06 -14.92 11.36 -20.6 11.62 C-25.54 12.4 -28.13 15.04 -31.38 18.62 Z " fill="#010202" transform="translate(458,229)"/>
<path d="M0 0 C26.4 0 52.8 0 80 0 C80 15.84 80 31.68 80 48 C74.72 48 69.44 48 64 48 C64 37.44 64 26.88 64 16 C48.16 16 32.32 16 16 16 C16 26.56 16 37.12 16 48 C10.72 48 5.44 48 0 48 C0 32.16 0 16.32 0 0 Z " fill="#5CD6B3" transform="translate(48,288)"/>
</svg>
